<svg width="100" height="82" viewBox="0 0 100 82" fill="none" xmlns="http://www.w3.org/2000/svg">
<g opacity="0.3">
<path d="M84.9583 26.0217C84.08 11.5598 71.715 0 56.8067 0C47.7567 0 38.9933 4.2791 33.5633 11.2609C33.44 11.1983 33.3083 11.1565 33.1833 11.097C32.8533 10.9428 32.5183 10.795 32.175 10.6648C31.9833 10.5925 31.7917 10.5266 31.5983 10.4607C31.2617 10.3466 30.9217 10.247 30.5733 10.1554C30.38 10.1056 30.1883 10.0542 29.9917 10.0108C29.6183 9.92885 29.2383 9.86618 28.8533 9.81155C28.6833 9.78745 28.5167 9.75531 28.345 9.73603C27.795 9.67818 27.235 9.64122 26.6667 9.64122C18.3967 9.64122 11.6667 16.1282 11.6667 24.1031C11.6667 24.3103 11.6783 24.5128 11.6933 24.7153C4.76167 28.358 0 35.9923 0 43.633C0 55.0144 9.60333 64.2748 21.4083 64.2748H30C30.92 64.2748 31.6667 63.5565 31.6667 62.6679C31.6667 61.7793 30.92 61.0611 30 61.0611H21.4083C11.4417 61.0611 3.33333 53.2436 3.33333 43.633C3.33333 36.958 7.84167 30.0292 14.0533 27.1577L15 26.7223V25.7099C15 25.5123 15.0133 25.3098 15.025 25.1073L15.04 24.8261L15.02 24.5241C15.0117 24.3843 15 24.2445 15 24.1031C15 17.9021 20.2333 12.855 26.6667 12.855C27.1817 12.855 27.69 12.8983 28.195 12.9626C28.325 12.9787 28.4533 12.9996 28.5817 13.0205C29.0283 13.0912 29.4683 13.1844 29.9017 13.3049C29.9583 13.321 30.0167 13.3306 30.0717 13.3467C30.5483 13.4865 31.0133 13.6648 31.4683 13.8641C31.5833 13.9139 31.6967 13.9685 31.81 14.0232C32.2133 14.2144 32.6083 14.4265 32.9883 14.6643C36.2 16.6713 38.3333 20.1485 38.3333 24.1031C38.3333 24.9917 39.08 25.7099 40 25.7099C40.92 25.7099 41.6667 24.9917 41.6667 24.1031C41.6667 19.6777 39.59 15.7168 36.3333 13.0622C41.11 7.03648 48.98 3.21374 56.8067 3.21374C69.7133 3.21374 80.4367 13.0719 81.5533 25.5283C79.85 25.4127 77.2983 25.3532 74.7483 25.7292C73.8383 25.8626 73.2133 26.6821 73.3517 27.5594C73.4767 28.3548 74.1867 28.9253 74.9967 28.9253C75.08 28.9253 75.165 28.9188 75.25 28.906C78.9567 28.3661 82.8217 28.8722 83.0567 28.9028C90.8167 30.3249 96.6667 37.2167 96.6667 44.9474C96.6667 53.8318 89.1683 61.0611 79.9533 61.0611H73.3333C72.4133 61.0611 71.6667 61.7793 71.6667 62.6679C71.6667 63.5565 72.4133 64.2748 73.3333 64.2748H79.9533C91.0067 64.2748 100 55.6041 100 44.9474C100 36.1273 93.6217 28.2166 84.9583 26.0217Z" fill="#534039"/>
<path d="M52.8484 42.2512C52.695 42.1017 52.51 41.9844 52.305 41.9025C51.8984 41.7402 51.4384 41.7402 51.0317 41.9025C50.8267 41.9844 50.6434 42.1017 50.4884 42.2512L37.1567 55.1046C36.5051 55.7329 36.5051 56.7484 37.1567 57.3767C37.4817 57.6901 37.9084 57.8475 38.3351 57.8475C38.7617 57.8475 39.1884 57.6901 39.5134 57.3767L50.0017 47.2646V80.3438C50.0017 81.2324 50.7484 81.9507 51.6684 81.9507C52.5884 81.9507 53.335 81.2324 53.335 80.3438V47.2646L63.8234 57.3767C64.1484 57.6901 64.575 57.8475 65.0017 57.8475C65.4284 57.8475 65.855 57.6901 66.18 57.3767C66.8317 56.7484 66.8317 55.7329 66.18 55.1046L52.8484 42.2512Z" fill="#534039"/>
</g>
</svg>
