<svg width="152" height="54" viewBox="0 0 152 54" fill="none" xmlns="http://www.w3.org/2000/svg">
<g clip-path="url(#clip0_60_968)">
<path d="M82.0044 22.8793C81.8108 22.5712 81.7043 22.216 81.6961 21.8519V10.5393C82.2361 10.2176 82.8485 10.0386 83.4761 10.0193C84.1038 10 84.726 10.1409 85.2845 10.4288C86.0031 10.7253 86.6892 11.0955 87.3319 11.5335V7.11456H86.6274V10.6939C86.1651 10.3957 85.7469 10.1637 85.3286 9.94272C83.3142 8.94844 82.0264 9.05892 80.9917 9.72177V21.0233C81.0148 21.3938 81.1271 21.7531 81.3187 22.0706C81.5104 22.388 81.7759 22.6541 82.0924 22.8462" fill="#262626"/>
<path d="M81.7513 4.88298C82.8884 4.50003 84.1022 4.40515 85.2847 4.60679C86.32 4.77498 87.3424 5.01492 88.3447 5.32488C88.6749 4.22013 89.2363 3.30319 89.5775 2.1874V1.61293H88.829C88.4658 2.6072 87.9595 3.50205 87.6402 4.51841C86.8839 4.28674 86.116 4.09498 85.3397 3.94395C83.9286 3.58102 82.444 3.62699 81.0579 4.07651V6.28601H81.8064L81.7513 4.88298Z" fill="#262626"/>
<path d="M76.2476 2.47463C76.1861 2.31426 76.0881 2.17051 75.9614 2.05483C75.8815 1.962 75.7931 1.87693 75.6973 1.80074V2.24263C75.7911 2.26374 75.8805 2.30113 75.9614 2.35311C76.06 2.39429 76.1557 2.44228 76.2476 2.49672" fill="#262626"/>
<path d="M65.2623 25.9284L65.3174 26.5139C62.9618 26.7349 60.6393 27.0663 58.3608 27.4529L57.8984 27.5413L58.3938 28.0606L58.6469 28.3146C61.0795 27.8948 63.5562 27.5413 66.0989 27.2872L66.0438 26.1825C65.3174 25.9284 65.5045 25.1551 65.5265 24.2602C65.3839 20.4551 65.8636 16.6523 66.9465 13.0029C66.7923 12.4726 66.6383 11.8981 66.4511 11.4231C65.2183 14.8588 64.8 18.3056 64.778 23.4869C64.778 24.3486 64.5689 25.6964 65.2954 25.8953" fill="#262626"/>
<path d="M75.334 26.768V25.6633C74.4644 25.4644 74.3543 24.8347 73.9911 23.752C72.318 16.1735 71.9768 12.4063 70.3477 8.97054C71.3298 7.61568 72.0743 6.10256 72.5491 4.49632C72.6658 3.91111 72.964 3.37794 73.4009 2.97314C73.8379 2.56833 74.3912 2.31263 74.9818 2.24264V1.66817H73.4848C73.05 1.84633 72.6674 2.13239 72.3728 2.49952C72.0782 2.86665 71.8814 3.30283 71.8007 3.76718C71.3258 5.37342 70.5813 6.88655 69.5992 8.24141C71.2283 11.6772 71.5695 15.4554 73.2426 23.0229C73.6059 24.1277 73.7159 25.2324 74.5855 25.4092V26.0168C72.2409 26.0168 69.9074 26.1604 67.6399 26.3482L68.3334 27.1547C70.6339 26.9558 72.9895 26.8453 75.356 26.8232" fill="#262626"/>
<path d="M90.5901 2.47463C90.5297 2.319 90.4399 2.17648 90.3259 2.05483C90.2488 1.96645 90.1498 1.88912 90.0728 1.80074V2.24263C90.1481 2.29755 90.2345 2.33526 90.3259 2.35311C90.403 2.41939 90.513 2.47463 90.5901 2.52987" fill="#262626"/>
<path d="M124.239 17.5323L123.766 16.759V34.6448C123.909 34.8327 124.063 35.0315 124.239 35.2304C124.385 35.3932 124.539 35.5481 124.702 35.6944L124.526 35.4403V18.0295C124.449 17.8638 124.339 17.698 124.239 17.5323Z" fill="#262626"/>
<path d="M76.4239 26.768C79.3739 26.768 82.3458 26.8453 85.2298 27.0994C86.6827 27.2099 88.1357 27.3535 89.6327 27.5413L90.3041 27.5966H90.5463C93.6105 27.9824 96.6526 28.5282 99.6603 29.2316C101.058 29.5409 102.478 29.8944 103.876 30.3363L104.449 30.502L104.735 30.5794C106.705 31.1649 108.587 31.8277 110.425 32.5458C112.935 33.5511 115.335 34.6559 117.613 35.8601C117.653 35.8502 117.695 35.8502 117.734 35.8601L118.021 36.0258C120.057 37.1305 122.126 38.5225 124.174 39.9366C125.924 41.1628 127.685 42.4002 129.369 43.6264C131.571 44.6538 133.299 41.8809 133.189 37.2741C132.957 23.52 124.614 15.0356 124.438 12.6714V8.87111V4.99345C124.465 4.27078 124.764 3.58533 125.275 3.07498C125.785 2.56463 126.469 2.26724 127.19 2.24264V1.66817H125.682C125.104 1.85855 124.6 2.22551 124.24 2.71768C123.946 3.16467 123.782 3.68492 123.766 4.22013V8.09779V13.0912C123.847 13.5467 124.015 13.9821 124.262 14.3727C126.122 17.6097 132.352 24.7132 132.528 36.5782C132.638 41.3838 131.108 44.0683 128.863 42.7095C127.42 41.4032 125.882 40.2067 124.262 39.1301C122.272 37.8344 120.218 36.6398 118.109 35.5507C118.015 35.5178 117.927 35.4733 117.844 35.4182L118.087 34.8879C118.206 34.9086 118.329 34.9014 118.445 34.8669C118.562 34.8324 118.669 34.7716 118.758 34.689C118.856 33.9568 118.882 33.2168 118.835 32.4795C118.659 29.1653 118.395 26.4918 118.087 24.2713C116.986 16.3944 115.225 14.4832 113.177 11.2574C116.535 6.62848 116.645 3.39157 115.478 2.13216C115.363 2.03178 115.233 1.9498 115.093 1.88912C115.885 3.52414 115.687 6.99304 112.066 10.9812C114.674 15.0908 117.261 16.5049 118.087 31.6731V31.894C118.131 32.4123 118.131 32.9334 118.087 33.4517C118.01 34.3908 117.723 35.2525 116.986 34.9763C114.916 33.9489 112.77 32.9767 110.503 32.0929C108.565 31.3417 106.551 30.6457 104.482 30.038C104.25 29.9497 104.008 29.8944 103.777 29.8171L103.931 29.2647C103.799 28.2926 103.546 27.3204 103.436 26.4034C103.29 26.5829 103.106 26.7265 102.896 26.8232C103.056 27.5524 103.173 28.2901 103.249 29.0327L103.128 29.5851C101.961 29.2537 100.827 28.9554 99.6603 28.6792C96.6333 27.9501 93.5623 27.3977 90.3041 26.9227C90.132 26.9384 89.9589 26.9384 89.7868 26.9227L89.8748 26.4476H89.7868L88.8291 23.6858C88.7124 23.8272 88.5751 23.9501 88.4219 24.0503L89.0383 26.1493L88.9612 26.7349C87.7504 26.5691 86.5616 26.4587 85.3398 26.3482C82.2467 26.072 79.1097 25.9615 76.0166 25.9615H75.8075H75.7524L76.0166 26.2488L76.4239 26.768Z" fill="#262626"/>
<path d="M96.457 24.7132C96.2656 24.3702 96.1352 23.9964 96.0718 23.6084V10.5393C96.6157 10.2176 97.2318 10.0388 97.8629 10.0195C98.494 10.0002 99.1197 10.141 99.6822 10.4288C100.391 10.7373 101.073 11.1069 101.719 11.5335V7.11456H100.937V10.6939C100.464 10.3957 100.034 10.1637 99.6382 9.94272C97.6018 8.94844 96.2809 9.05892 95.3013 9.72177V22.8241C95.3337 23.2012 95.4493 23.5663 95.6396 23.893C95.83 24.2198 96.0904 24.4999 96.402 24.7132" fill="#262626"/>
<path d="M110.414 5.15917C110.411 5.06134 110.438 4.96488 110.491 4.88298C110.715 4.55382 111.05 4.31678 111.434 4.21532C111.819 4.11387 112.226 4.1548 112.583 4.33061C112.417 3.93949 112.105 3.62961 111.714 3.46827C111.322 3.30693 110.883 3.30716 110.491 3.46891C110.286 3.52557 110.1 3.63809 109.954 3.79405C109.809 3.95001 109.709 4.14335 109.666 4.35271V10.7602C109.936 10.5639 110.187 10.3419 110.414 10.0974V5.15917Z" fill="#262626"/>
<path d="M118.086 4.75041C118.47 4.62831 118.875 4.58694 119.275 4.62888V4.07651C118.913 3.87386 118.501 3.77812 118.086 3.80032C117.672 3.82925 117.268 3.94198 116.898 4.13175L117.184 5.32487C117.433 5.06188 117.743 4.86457 118.086 4.75041Z" fill="#262626"/>
<path d="M137.107 43.7921C137.47 43.9579 138.296 44.0131 138.89 42.8531C141.994 37.5835 137.911 35.3629 139.991 32.7005C140.731 31.9623 141.718 31.5272 142.76 31.4802C143.802 31.4333 144.824 31.7777 145.627 32.4464C145.274 31.9482 144.818 31.533 144.29 31.2295C143.762 30.926 143.174 30.7416 142.568 30.689C141.961 30.6365 141.351 30.717 140.778 30.9251C140.206 31.1332 139.686 31.4638 139.254 31.894C137.129 34.5565 141.213 36.777 138.153 42.0466C137.558 43.1514 136.733 43.1514 136.37 42.9857C136.52 43.3525 136.803 43.6485 137.162 43.8142" fill="#262626"/>
<path d="M105.032 2.44149C104.925 2.15418 104.728 1.90973 104.47 1.7455H104.382V2.24264C104.396 2.24945 104.411 2.25299 104.426 2.25299C104.442 2.25299 104.457 2.24945 104.47 2.24264C104.668 2.31997 104.878 2.38625 105.032 2.46359" fill="#262626"/>
<path d="M96.1159 4.91612C97.2544 4.48881 98.4876 4.38185 99.6823 4.60679C100.714 4.73898 101.728 4.97966 102.709 5.32488C103.073 4.22013 103.612 3.30319 103.975 2.1874V1.61293H103.139C102.797 2.6072 102.28 3.50205 101.95 4.51841C101.206 4.26102 100.444 4.05796 99.6713 3.9108C98.2563 3.54542 96.7647 3.61469 95.3894 4.10966V6.31915H96.1379L96.1159 4.91612Z" fill="#262626"/>
<path d="M66.3962 6.79419C65.6246 5.74814 65.257 4.45684 65.3615 3.15957C65.3615 2.38625 65.7798 2.33102 66.11 2.1874V1.61293H64.8992C64.7978 1.70809 64.7192 1.8252 64.6697 1.95537C64.6201 2.08554 64.6007 2.22535 64.613 2.36416C64.5351 3.19029 64.6564 4.02311 64.9668 4.79225C65.2772 5.5614 65.7675 6.24426 66.3962 6.78314" fill="#262626"/>
<path d="M110.414 29.0106V14.0634C110.414 14.0634 110.414 14.0634 110.491 14.0082C110.784 13.7774 111.059 13.5263 111.317 13.257L110.689 12.34C110.623 12.4284 110.535 12.4836 110.491 12.5389C110.237 12.8017 109.961 13.0419 109.666 13.257V28.1821C109.719 28.3687 109.814 28.5406 109.943 28.6843C110.073 28.828 110.234 28.9397 110.414 29.0106Z" fill="#262626"/>
<path d="M30.171 0.80646V1.41407C29.5656 1.69026 29.2354 1.88911 29.0703 2.27577C28.9687 2.63696 28.9687 3.01933 29.0703 3.38052C29.0994 3.63501 29.151 3.8864 29.2244 4.13174C29.9949 7.23608 30.7764 10.3515 31.5469 13.4558C31.6019 13.2349 31.679 13.036 31.7341 12.8371C31.7891 12.6383 31.8111 12.6162 31.8661 12.4836C31.9212 12.3511 31.7891 12.1743 31.7341 12.0417C31.1617 9.67757 30.5673 7.29132 29.9729 4.93821C29.4886 3.027 29.7197 2.72872 30.8755 2.22053L30.105 0.729126H29.0703L28.3218 0.784365H30.138L30.171 0.80646Z" fill="#262626"/>
<path d="M23.5996 3.57938C22.7503 2.51546 21.5669 1.77169 20.2424 1.46931L20.8038 2.22054C21.8217 2.46816 22.7749 2.93147 23.5996 3.57938Z" fill="#262626"/>
<path d="M31.657 25.0777C31.7056 25.2293 31.7424 25.3844 31.7671 25.5417L32.1523 27.0663C32.6477 25.2655 33.165 23.266 33.6713 21.2443C33.9135 20.4157 34.1116 19.6092 34.3538 18.8028C34.662 17.6097 34.9922 16.4165 35.3555 15.2786V12.2848C34.9922 13.3122 34.662 14.3065 34.3538 15.3339C34.1116 16.0851 33.8915 16.8032 33.6713 17.5434C32.9999 19.9075 32.4385 22.2938 31.7671 24.6469C31.7442 24.7901 31.7073 24.9307 31.657 25.0667" fill="#262626"/>
<path d="M28.2007 33.3081C28.2639 34.3632 28.573 35.3887 29.1033 36.302C29.3453 36.7213 29.6582 37.0951 30.0279 37.4067C29.5604 36.6831 29.2458 35.8709 29.1033 35.0205C29.0333 34.7108 28.9818 34.3972 28.9492 34.0814C28.9492 29.1763 28.9492 20.8245 28.9492 15.1903C28.641 14.0855 28.3548 12.9808 28.1787 12.2848C28.2778 17.8085 28.2778 27.7512 28.2338 33.275" fill="#262626"/>
<path d="M11.0843 42.5769C11.1352 42.8743 11.224 43.1639 11.3485 43.4386C11.6153 43.6186 11.8498 43.8427 12.0419 44.1015C11.3485 42.4333 12.1741 40.4669 14.4746 38.2795C18.3492 34.9652 19.4058 30.1485 17.2154 28.7676C18.3161 30.7009 17.0613 34.6117 13.7261 37.473C12.4217 38.5257 11.4944 39.9761 11.0843 41.6047C11.0403 41.9273 11.0403 42.2544 11.0843 42.5769Z" fill="#262626"/>
<path d="M147.762 28.8449C150.013 31.542 151.245 34.9491 151.241 38.4673C151.241 44.6759 147.784 50.973 140.982 52.2766C138.343 52.7171 135.638 52.5394 133.078 51.7574C129.989 50.5254 127.037 48.9702 124.273 47.1174C120.112 44.3998 116.028 41.5053 111.658 39.1633C106.185 36.5787 100.43 34.6469 94.5088 33.4075C88.3489 32.1635 82.0798 31.5454 75.7964 31.5626C69.9467 31.5434 64.1084 32.0835 58.3608 33.1755C52.8557 34.1452 47.4862 35.7734 42.3672 38.0254C40.0395 39.0505 37.785 40.2354 35.6197 41.5716C35.2784 41.7815 34.0676 42.4885 33.7044 42.6763C33.2077 42.0366 32.5505 41.541 31.8001 41.2402C30.9584 40.8801 30.0513 40.6996 29.1363 40.7099C25.4159 40.7099 22.3558 44.1125 23.4235 47.4157C20.0003 50.3985 15.2671 53.2156 10.8862 53.2156C9.59397 53.268 8.3045 53.0572 7.09565 52.5958C5.88679 52.1344 4.78357 51.4321 3.85254 50.5311C4.71377 51.5774 5.78559 52.4293 6.99773 53.0309C8.20986 53.6325 9.53496 53.9703 10.8862 54.0221C15.8836 54.0221 20.2865 51.5917 24.1721 48.2222C24.1625 48.1599 24.1625 48.0966 24.1721 48.0344C23.3135 44.5876 26.1644 41.9583 29.1584 41.5716C30.05 41.4596 30.9549 41.5234 31.8221 41.7594C32.5134 41.9571 33.1601 42.2872 33.7264 42.7316C33.9748 42.9216 34.2034 43.1363 34.4089 43.3723C34.4089 43.4276 34.4859 43.4607 34.5079 43.5049C35.1573 43.1514 35.7738 42.7647 36.4232 42.4002C38.3558 41.2071 40.3592 40.1335 42.4222 39.1853C47.5336 36.8682 52.903 35.1732 58.4158 34.1367C64.2167 32.9872 70.1146 32.4027 76.0275 32.3912H76.5889C89.5555 32.8441 100.475 34.689 110.557 39.572C115.401 42.0135 119.76 45.2283 124.306 48.2222C127.224 50.2112 130.364 51.8501 133.662 53.1052C136.05 53.8483 138.576 54.0371 141.048 53.6575C148.269 52.4423 152.055 45.6702 152.055 39.2958C152.05 35.3982 150.53 31.6564 147.817 28.867" fill="#262626"/>
<path d="M5.58063 47.8687C2.9719 44.5544 3.59931 39.804 5.8448 36.6665C7.4959 34.8879 9.54328 33.6506 10.8531 33.9157L11.0843 34.0041C11.0911 33.9904 11.0946 33.9752 11.0946 33.9599C11.0946 33.9446 11.0911 33.9294 11.0843 33.9157C11.0442 33.8108 10.9925 33.7108 10.9302 33.6174L10.8531 33.5291C9.69738 32.3359 7.11065 33.6948 5.09631 35.8601C2.64168 39.2406 2.14635 44.698 5.58063 47.8687Z" fill="#262626"/>
<path d="M11.943 46.7639C11.7306 46.8545 11.5023 46.9011 11.2716 46.9011C11.0408 46.9011 10.8125 46.8545 10.6001 46.7639C10.6779 46.9605 10.7949 47.1391 10.9437 47.2888C11.0926 47.4386 11.2703 47.5563 11.466 47.6349C11.6617 47.7134 11.8713 47.7512 12.082 47.7458C12.2927 47.7404 12.5 47.692 12.6915 47.6035C13.7262 47.1506 13.473 45.2725 12.1741 44.2893C12.7685 45.2615 12.7135 46.4325 11.943 46.7639Z" fill="#262626"/>
<path d="M50.5237 29.1543L50.964 29.6514L51.2501 29.9497L54.1781 29.2647C55.3559 28.9885 56.5777 28.7344 57.8105 28.5135L57.7115 27.4861C57.4314 27.4652 57.1671 27.3482 56.9629 27.1547L57.073 27.707L54.1781 28.2926L50.964 29.0327C50.8206 29.0849 50.6734 29.1255 50.5237 29.1543Z" fill="#262626"/>
<path d="M59.3735 1.63503V2.24263C59.8086 2.33574 60.2205 2.5161 60.5843 2.77291C60.296 2.29465 59.8753 1.91083 59.3735 1.66817" fill="#262626"/>
<path d="M50.9638 9.29092C51.0959 8.99264 51.25 8.65017 51.4041 8.35189V6.1424C51.2353 6.40618 51.088 6.68328 50.9638 6.97095C49.7285 9.4409 48.751 12.0324 48.0469 14.7042C48.3966 14.4966 48.7652 14.3228 49.1476 14.1849C49.6365 12.5291 50.2284 10.9056 50.9198 9.32406" fill="#262626"/>
<path d="M55.9833 8.04255V24.7353C55.9833 26.1493 56.0823 27.1547 56.9629 27.1326C56.7371 26.635 56.657 26.0833 56.7318 25.5417V8.87111C56.8088 5.49059 56.2915 3.23691 58.3608 2.40835C58.5225 2.32365 58.6975 2.26759 58.8782 2.24263V1.63503H57.5353C55.565 2.51882 56.0603 4.73936 55.9833 8.06465" fill="#262626"/>
<path d="M34.4529 2.24264L34.9482 2.44149C34.9127 2.28319 34.8403 2.13559 34.737 2.01078C34.6337 1.88596 34.5024 1.78749 34.3538 1.72341C34.1806 1.62624 33.9956 1.55198 33.8035 1.50246L34.3538 2.13216L34.4529 2.24264Z" fill="#262626"/>
<path d="M33.6824 1.27046L33.7044 1.3036V1.27046H33.6824Z" fill="#262626"/>
<path d="M47.7386 2.47463C47.6602 2.22715 47.5061 2.01071 47.2983 1.85597C47.1763 1.76509 47.0476 1.68383 46.9131 1.61293V2.24264L47.3313 2.33101C47.4856 2.37914 47.6335 2.44592 47.7717 2.52987" fill="#262626"/>
<path d="M40.6059 31.8719L40.76 32.3138C38.5648 33.2069 36.4255 34.2325 34.3538 35.385C34.1116 35.4955 33.9135 35.6391 33.6713 35.7496C33.4292 35.8601 33.4402 35.8822 33.3191 35.9705L33.6713 36.4124L34.0126 36.7991C34.1224 36.7295 34.2363 36.6668 34.3538 36.6113C36.6526 35.3008 39.0396 34.1528 41.4975 33.1755L41.7837 33.0319C41.9698 32.9432 42.1609 32.8658 42.3561 32.7999C43.9521 32.1923 45.6583 31.6068 47.2874 31.1097L48.3881 30.7782L48.1349 29.6735C47.1993 29.6182 47.4084 26.3592 47.4084 24.68C47.4084 22.7357 47.6616 20.0732 50.9198 18.8249C51.0699 18.7929 51.2172 18.7486 51.3601 18.6923V17.687C51.2181 17.7134 51.0783 17.7503 50.9418 17.7975C50.1729 17.9615 49.4479 18.2889 48.8157 18.7576C48.1834 19.2264 47.6585 19.8257 47.2764 20.5151C46.8331 21.5612 46.6299 22.6939 46.682 23.8294C46.682 25.4644 46.5058 29.0106 47.2764 29.3531C47.3199 29.362 47.3649 29.362 47.4084 29.3531L47.5075 29.8834C47.4305 29.8885 47.3533 29.8885 47.2764 29.8834C45.6253 30.3805 43.9742 30.9881 42.3451 31.5515L41.0242 32.0487L40.8921 31.6068L41.0462 31.4963C40.5289 31.0434 40.4738 29.795 40.4298 28.635V4.91611C40.468 4.37845 40.6734 3.86637 41.017 3.45212C41.3606 3.03786 41.8251 2.74232 42.3451 2.60719C42.8057 2.42706 43.2807 2.28662 43.765 2.18739L43.0385 0.828552V1.39197L42.3671 1.55768C40.8371 1.96644 39.7474 2.66243 39.7033 4.10965V27.9832C39.7033 28.4251 39.7033 28.8449 39.7033 29.2095C39.7033 31.3085 40.0336 31.651 40.5839 31.8719" fill="#262626"/>
<path d="M133.629 27.6518C133.629 28.9664 134.652 30.8445 137.261 34.7774C137.5 35.3819 137.557 36.0436 137.423 36.6801C137.29 37.3166 136.974 37.8997 136.513 38.3568C135.555 39.3511 134.036 41.1849 135.841 42.1571C136.227 42.3118 137.052 42.3781 137.657 41.207C140.751 35.9374 136.667 33.7169 138.758 31.0544C140.046 29.6956 145.836 27.2651 147.388 38.1911C147.542 45.2615 140.563 50.0008 133.849 48.2774C127.465 45.8138 120.409 39.6052 111.438 35.4071C100.186 30.3303 87.9548 27.814 75.6203 28.0385C60.0339 28.0385 48.3551 31.2312 37.634 36.4456C33.5393 38.1358 28.3438 38.7987 27.7274 32.5016C27.7274 26.9779 27.7274 17.0352 27.6504 11.5115C28.3989 14.3396 30.4462 21.4542 31.1727 24.3486C32.3615 20.0511 33.3081 15.7537 34.8932 11.4783V27.7623C34.6373 30.1732 33.8878 32.5051 32.6917 34.6117L32.8128 35.142C35.2113 33.7469 37.7095 32.532 40.2868 31.5074L40.1547 31.0655C39.6153 30.8445 39.2521 30.5131 39.2521 28.403V3.34738C39.3071 1.73445 40.7271 1.01637 42.5543 0.629706V0.0331421H33.1981V0.618658C34.8492 1.11579 34.618 1.9554 34.1557 3.31424C33.143 6.41858 32.1083 9.54501 31.0737 12.6825C30.3031 9.57815 29.5547 6.47381 28.7731 3.36948C28.2888 1.44722 28.52 1.15998 29.6537 0.640752V0.0331421H19.549V0.640752C21.101 1.03846 22.8512 1.9554 23.4016 3.31424C24.1501 11.5667 21.5964 52.5859 7.69413 48.7304C1.54105 46.1232 1.66212 39.1633 4.59006 35.0867C6.65944 32.8773 9.31219 31.5184 10.4239 32.8773C11.5247 34.4902 9.99464 38.0585 9.08103 42.3891C8.64074 44.3335 9.49932 46.8081 11.4586 46.0237C12.4933 45.5818 12.2402 43.6375 10.8642 42.7095C10.0607 41.0192 10.8642 39.0196 13.2418 36.7439C18.3052 32.3912 18.5693 25.5417 13.0437 27.0331C5.23949 29.4415 -0.1651 35.2083 0.011017 42.0466C0.176127 48.2332 4.68913 52.4644 10.1267 52.4644C14.0784 52.4644 18.5914 50.4206 22.8842 46.6755C22.897 46.6099 22.897 46.5423 22.8842 46.4767C21.9816 42.7537 25.3939 39.9587 28.6411 39.9587C29.5089 39.9197 30.3742 40.0795 31.1713 40.4259C31.9685 40.7724 32.6766 41.2964 33.2421 41.9583C33.8695 41.5937 34.5079 41.207 35.1574 40.8535C44.8768 34.7553 59.2744 30.8445 75.3231 30.8445C89.1262 30.8445 101.741 33.739 111.163 38.4783C119.385 42.8973 125.175 48.2885 132.627 51.0393C144.658 54.4419 150.712 46.0458 150.767 37.7823C150.657 29.784 144.955 24.1829 139.408 24.1829C137.14 24.1829 133.662 25.3981 133.662 27.8065" fill="#E52528"/>
<path d="M140.674 35.4513C140.706 35.0689 140.848 34.7041 141.083 34.4014C141.318 34.0988 141.636 33.8712 141.997 33.7467C142.359 33.6221 142.749 33.6058 143.12 33.6998C143.49 33.7938 143.826 33.994 144.085 34.276C144.344 34.5581 144.516 34.9097 144.58 35.2882C144.643 35.6666 144.596 36.0554 144.443 36.4072C144.29 36.7589 144.039 37.0585 143.719 37.2694C143.4 37.4802 143.026 37.5932 142.644 37.5945C142.105 37.5743 141.595 37.3414 141.226 36.9462C140.857 36.5511 140.659 36.0258 140.674 35.4844M144.834 35.4844C144.806 35.0547 144.654 34.6425 144.396 34.2985C144.138 33.9545 143.785 33.6938 143.381 33.5484C142.977 33.4029 142.54 33.3791 142.122 33.4799C141.705 33.5807 141.326 33.8017 141.033 34.1156C140.739 34.4296 140.543 34.8229 140.469 35.2471C140.395 35.6714 140.446 36.108 140.616 36.5035C140.786 36.8989 141.068 37.2359 141.426 37.4729C141.784 37.7099 142.204 37.8366 142.633 37.8376C142.935 37.8291 143.231 37.7603 143.506 37.6352C143.781 37.51 144.028 37.3311 144.233 37.1088C144.438 36.8866 144.597 36.6255 144.7 36.3409C144.804 36.0563 144.849 35.7538 144.834 35.4513V35.4844Z" fill="#E52528"/>
<path d="M142.06 34.4349H142.688C142.82 34.4277 142.951 34.4625 143.062 34.5344C143.11 34.5766 143.147 34.6298 143.17 34.6894C143.193 34.749 143.201 34.8133 143.194 34.8768V34.9652V35.0646C143.163 35.1417 143.114 35.2099 143.051 35.2635C143.014 35.3026 142.97 35.3336 142.921 35.3545C142.871 35.3754 142.818 35.3858 142.765 35.385H142.082L142.06 34.4349ZM143.073 35.8269C143.115 35.9627 143.134 36.1047 143.128 36.2467V36.313V36.5782C143.122 36.6295 143.122 36.6815 143.128 36.7328H143.458C143.451 36.6853 143.451 36.6368 143.458 36.5892C143.451 36.5047 143.451 36.4197 143.458 36.3351V36.2357C143.458 36.1583 143.458 36.081 143.458 36.0037C143.458 35.9264 143.458 35.8601 143.458 35.7938C143.44 35.7268 143.405 35.6654 143.357 35.6153C143.309 35.5652 143.249 35.5278 143.183 35.5065C143.3 35.4712 143.398 35.3921 143.458 35.2856C143.536 35.1557 143.574 35.006 143.568 34.8547C143.582 34.6891 143.535 34.5242 143.436 34.3908C143.366 34.2986 143.27 34.2294 143.161 34.1919C143.095 34.1827 143.029 34.1827 142.963 34.1919H141.862V36.8322H142.171V35.7275H142.765C142.919 35.6502 143.029 35.7054 143.073 35.8269Z" fill="#E52528"/>
<path d="M49.2028 8.87111C49.6738 7.65344 50.2254 6.46872 50.8539 5.32488V12.7267C50.2935 12.8236 49.7415 12.964 49.2028 13.1465C48.6203 13.3461 48.0567 13.5975 47.5187 13.8977C47.9839 12.1912 48.5462 10.513 49.2028 8.87111ZM47.2435 2.6293C44.2266 9.51516 42.342 16.8463 41.6628 24.3376C41.2225 27.9722 41.7618 30.1596 40.4189 30.966L40.5511 31.4079C42.6739 30.5629 44.8377 29.8254 47.0344 29.1984L46.9353 28.6792C46.0107 28.6129 46.2198 24.7905 46.2198 23.0671C46.2198 21.3437 46.44 18.7475 49.2358 17.4439C49.7621 17.194 50.3165 17.0085 50.8869 16.8916V24.901C50.8869 26.6465 50.7328 27.3204 49.9073 27.8175L50.0173 28.392C52.1307 27.8396 54.2992 27.3425 56.5447 26.9227L56.4676 26.3482C55.5981 26.3482 55.4659 25.376 55.488 23.9619V7.23609C55.543 3.61252 54.9706 1.3036 57.6894 0.607611V0.0331421H45.6144V0.640752C46.8032 0.729131 47.5517 1.55769 47.2765 2.6072L47.2435 2.6293Z" fill="#E52528"/>
<path d="M90.3811 3.2811V23.1002C90.3811 23.8846 90.15 25.2435 89.4015 25.4644L89.3244 26.0499C93.8203 26.6244 98.2682 27.5291 102.632 28.7565L102.786 28.2042C102.687 27.0994 102.346 25.8842 102.192 24.7353C101.752 25.4313 100.101 25.4644 98.8898 25.1219C95.8958 24.2713 95.1473 23.5532 94.8611 22.0286V8.9374C96.0499 8.15303 97.734 8.15303 100.497 9.89853V5.55687H94.9051V3.34738C96.5342 2.65139 98.9668 2.90548 101.51 3.76718C101.851 2.66244 102.412 1.73445 102.753 0.651799V0.0331421H88.8291V0.618658C90.139 1.14894 90.3041 1.83388 90.4031 3.31424" fill="#E52528"/>
<path d="M76.0165 3.2811V22.1281C75.8844 23.498 75.8844 24.2713 75.18 24.5696V25.1551C79.5951 25.1204 84.0076 25.3787 88.3888 25.9284L88.4658 25.3539L87.5081 22.0397C85.9891 23.8625 80.5295 23.034 80.4525 20.2058V8.9374C81.6523 8.15303 83.3254 8.15303 86.0882 9.89853V5.55687H80.5075V3.34738C82.6209 2.56301 84.8444 3.11538 87.1119 3.78928C87.4751 2.68453 88.0255 1.75655 88.3888 0.673895V0.0331421H74.5195V0.640752C75.8404 1.14894 75.9945 1.83388 76.0716 3.31424" fill="#E52528"/>
<path d="M109.17 12.4505C109.532 12.1732 109.871 11.8665 110.183 11.5335C110.683 12.2327 111.124 12.9717 111.504 13.743C113.232 17.2672 113.562 21.5978 113.705 25.7295C113.76 26.8343 114.124 28.7013 112.913 29.0438C112.427 29.0103 111.945 28.9364 111.471 28.8228C110.37 28.5687 109.27 28.1268 109.137 27.464L109.17 12.4505ZM109.17 3.54623C109.303 2.6072 110.667 2.29787 111.504 2.80605C111.786 2.96845 111.995 3.23348 112.087 3.54623C112.158 4.7069 111.959 5.86817 111.504 6.9378C110.982 8.12502 110.182 9.16752 109.17 9.97586V3.54623ZM104.701 3.28109V26.0168C104.701 27.1215 104.547 28.403 103.436 28.403L103.249 28.9554C106.051 29.7628 108.807 30.7254 111.504 31.8388C113.232 32.5348 114.883 33.3081 116.457 34.1146C117.723 34.5565 117.679 32.0045 117.558 30.8003C116.732 15.6874 114.168 14.2291 111.537 10.1195C115.676 5.56792 115.39 1.71235 114.201 0.46399C113.735 0.109031 113.155 -0.0601984 112.572 -0.0110511H103.138V0.596561C104.679 1.02741 104.701 1.88911 104.701 3.28109Z" fill="#E52528"/>
<path d="M123.282 15.9525C124.286 17.5886 125.133 19.3159 125.814 21.1117C127.565 25.7616 128.424 30.7019 128.345 35.6723C128.345 36.5008 128.114 36.6886 127.597 36.777C126.96 36.673 126.353 36.4359 125.814 36.081C124.826 35.5288 123.964 34.7764 123.282 33.8715V15.9525ZM118.791 3.2811V31.3417C118.791 33.2308 118.505 34.225 117.569 34.0372L117.338 34.5565C120.293 36.0593 123.127 37.7917 125.814 39.7377C126.694 40.4116 127.542 41.1076 128.345 41.8478C130.47 43.1514 131.945 40.743 131.989 36.4456V35.7275C131.831 28.923 129.684 22.3151 125.814 16.7259C124.427 14.5164 123.304 13.0581 123.227 12.2295V7.23609V3.35843C123.254 2.66913 123.527 2.01254 123.996 1.50782C124.464 1.00311 125.097 0.683711 125.781 0.607611C125.824 0.618373 125.869 0.618373 125.913 0.607611V0.0331421H115.247V0.640752L115.995 3.75614C116.351 3.3906 116.814 3.14773 117.316 3.06239C117.818 2.97704 118.335 3.05361 118.791 3.2811Z" fill="#E52528"/>
<path d="M57.271 26.1825L57.3811 26.768C59.7807 26.3261 62.2573 25.9615 64.822 25.6633L64.767 25.0777C64.0185 24.8347 64.2276 23.5311 64.2276 22.6694C64.2276 17.4881 64.6679 14.0413 65.9338 10.6056C67.1117 14.4138 67.6874 18.3839 67.6399 22.3711C67.6399 23.1997 67.739 24.5806 67.0455 24.8678V25.4423C69.346 25.2545 71.7016 25.144 74.0792 25.1109V24.5033C73.1986 24.3376 73.1215 23.2328 72.7583 22.1281C71.0742 14.5606 70.744 10.7823 69.1149 7.34656C70.0781 6.00039 70.8212 4.50866 71.3163 2.92758C71.4052 2.3247 71.6933 1.76929 72.1345 1.35054C72.5756 0.9318 73.1442 0.674038 73.7489 0.618658V0.0331421H67.0015V0.640752C67.4198 0.640752 67.706 0.861702 67.75 1.59083C67.829 2.41914 67.706 3.25432 67.3915 4.02422C67.077 4.79413 66.5804 5.47561 65.9448 6.00982C65.31 5.47433 64.8135 4.79297 64.4973 4.02364C64.1811 3.25431 64.0546 2.41973 64.1286 1.59083C64.1286 0.817512 64.5468 0.762275 64.8881 0.618658V0.0331421H58.1076V0.618658C58.6977 0.729645 59.2437 1.00827 59.6808 1.42147C60.1178 1.83466 60.4276 2.36505 60.5732 2.94967C61.0592 4.53442 61.8031 6.02757 62.7747 7.36866C61.3987 10.5835 60.8924 14.7484 58.8451 23.4317C58.4818 24.7795 58.4818 25.6412 57.293 26.1714" fill="#E52528"/>
</g>
<defs>
<clipPath id="clip0_60_968">
<rect width="152" height="54" fill="white"/>
</clipPath>
</defs>
</svg>
