<svg width="179" height="40" viewBox="0 0 179 40" fill="none" xmlns="http://www.w3.org/2000/svg">
<g clip-path="url(#clip0_89_173)">
<path d="M0 27.8299C1.56168 31.4388 4.16518 34.5162 7.48709 36.6798C10.809 38.8435 14.7029 39.998 18.6852 40C17.1251 36.3899 14.522 33.3115 11.1997 31.1476C7.87747 28.9838 3.9827 27.83 0 27.8299Z" fill="#2EAC6A"/>
<path d="M18.6853 40C21.6023 40.0041 24.4595 39.1846 26.9183 37.6384C29.3771 36.0923 31.3346 33.8842 32.559 31.2759C29.6408 31.2664 26.7813 32.0837 24.3215 33.6305C21.8617 35.1773 19.9052 37.3883 18.6853 40Z" fill="#2EAC6A"/>
<path fill-rule="evenodd" clip-rule="evenodd" d="M18.6852 22.4936C20.1915 22.4936 21.6639 22.0536 22.9163 21.2292C24.1687 20.4048 25.1449 19.233 25.7213 17.8621C26.2977 16.4911 26.4485 14.9826 26.1547 13.5272C25.8608 12.0718 25.1355 10.7349 24.0704 9.68567C23.0053 8.6364 21.6483 7.92182 20.171 7.63233C18.6937 7.34283 17.1624 7.49142 15.7708 8.05929C14.3792 8.62715 13.1898 9.58878 12.353 10.8226C11.5161 12.0564 11.0695 13.507 11.0695 14.9909C11.0695 16.9807 11.8718 18.8891 13.3001 20.2961C14.7283 21.7032 16.6654 22.4936 18.6852 22.4936ZM18.6852 29.9964C21.6959 29.9877 24.6363 29.1004 27.1353 27.4463C29.6343 25.7922 31.5796 23.4457 32.7257 20.7031C33.8718 17.9604 34.1671 14.9447 33.5744 12.0368C32.9817 9.12893 31.5276 6.45931 29.3956 4.36512C27.2637 2.27093 24.5496 0.846122 21.5962 0.27066C18.6428 -0.304802 15.5825 -0.00510089 12.8019 1.1319C10.0213 2.26889 7.64508 4.19219 5.97337 6.65887C4.30166 9.12555 3.40944 12.025 3.40942 14.9909C3.40942 16.9651 3.80485 18.9199 4.57307 20.7433C5.3413 22.5667 6.46722 24.2228 7.88629 25.6168C9.30536 27.0108 10.9897 28.1151 12.8428 28.8667C14.6958 29.6182 16.6813 30.0021 18.6852 29.9964Z" fill="#FCBD17"/>
<path d="M88.4226 22.6827C88.4226 20.7925 86.5186 19.9491 84.3933 19.9491C81.161 19.9491 78.3568 21.3014 77.5007 24.7765C84.0981 26.6521 88.4226 25.2563 88.4226 22.6827ZM77.3531 28.7895C78.0468 32.948 81.3824 34.3003 84.7327 34.3003C86.9391 34.3041 89.0763 33.5422 90.7693 32.1483L94.6952 36.0451C93.4133 37.3897 91.8475 38.4407 90.1083 39.1241C88.369 39.8075 86.4988 40.1065 84.6294 40C78.3715 40 70.8443 36.365 70.8443 27.1465C70.8443 17.928 78.1058 14.3221 84.2604 14.3221C92.0533 14.3221 95.2856 17.928 95.2856 21.9702C95.3299 28.586 86.799 31.6394 77.3531 28.7895ZM46.6834 14.9909L46.4916 24.1367C46.5831 26.6964 46.3401 29.2571 45.7684 31.7557C45.2813 33.7623 44.2924 34.3293 42.8165 34.3293C42.3709 34.3405 41.9267 34.2766 41.5029 34.1403V39.3166C42.2644 39.625 43.087 39.7592 43.9087 39.7092C48.3365 39.5783 50.5503 37.4991 51.6425 33.7477C52.3253 31.2044 52.6726 28.585 52.6757 25.9542L52.8233 21.0251H60.7342V39.3166H67.0954V14.9909H46.6834ZM169.185 27.1465C169.223 26.24 169.068 25.3357 168.73 24.4918C168.392 23.6479 167.878 22.883 167.222 22.2465C165.909 20.9965 164.155 20.2978 162.329 20.2978C160.504 20.2978 158.749 20.9965 157.437 22.2465C156.796 22.8919 156.295 23.6593 155.965 24.5018C155.635 25.3443 155.483 26.2442 155.518 27.1465C155.487 28.0594 155.64 28.9692 155.97 29.823C156.299 30.6768 156.798 31.4574 157.437 32.1192C158.768 33.3333 160.515 34.0077 162.329 34.0077C164.144 34.0077 165.891 33.3333 167.222 32.1192C167.884 31.4696 168.404 30.6931 168.749 29.8378C169.094 28.9825 169.258 28.0665 169.229 27.1465H169.185ZM178.97 34.024V39.1858C177.709 39.7603 176.33 40.039 174.941 40C171.635 40 169.967 38.546 169.303 36.2923L169.185 36.4377C168.227 37.6174 166.998 38.5557 165.6 39.1751C164.201 39.7945 162.673 40.0773 161.141 40C159.54 40.0165 157.953 39.694 156.489 39.0543C155.025 38.4146 153.717 37.4727 152.655 36.2923C150.392 33.7786 149.143 30.5353 149.143 27.1756C149.143 23.8159 150.392 20.5726 152.655 18.0589C153.718 16.8768 155.025 15.932 156.488 15.2876C157.952 14.6431 159.538 14.314 161.141 14.3221C162.604 14.2474 164.066 14.5004 165.416 15.062C166.765 15.6236 167.968 16.4792 168.934 17.5645V14.9909H175.295V32.1919C175.295 33.646 175.974 34.4311 177.332 34.4311C177.929 34.4476 178.52 34.307 179.044 34.024H178.97ZM125.955 21.0251H133.881V39.3166H140.257V21.0251H148.079V14.9909H125.941L125.955 21.0251ZM116.583 14.9909H122.959V39.3166H116.583V29.8364H105.469V39.3166H99.1082V14.9909H105.469V23.9622H116.583V14.9909Z" fill="#2D89F5"/>
</g>
<defs>
<clipPath id="clip0_89_173">
<rect width="179" height="40" fill="white"/>
</clipPath>
</defs>
</svg>
