<svg width="12" height="12" viewBox="0 0 12 12" fill="none" xmlns="http://www.w3.org/2000/svg">
<path opacity="0.5" fill-rule="evenodd" clip-rule="evenodd" d="M6 0C2.68397 0 0 2.68352 0 6C0 9.31603 2.68352 12 6 12C9.31603 12 12 9.31648 12 6C12 2.68397 9.31648 0 6 0ZM6 11.0625C3.2021 11.0625 0.9375 8.79827 0.9375 6C0.9375 3.2021 3.20173 0.9375 6 0.9375C8.7979 0.9375 11.0625 3.20173 11.0625 6C11.0625 8.7979 8.79827 11.0625 6 11.0625ZM6 9.45703C6.3236 9.45703 6.58594 9.1947 6.58594 8.87109C6.58594 8.54749 6.3236 8.28516 6 8.28516C5.6764 8.28516 5.41406 8.54749 5.41406 8.87109C5.41406 9.1947 5.6764 9.45703 6 9.45703ZM4.125 4.88672C4.125 3.85284 4.96613 3.01172 6 3.01172C7.03387 3.01172 7.875 3.85284 7.875 4.88672C7.875 5.7588 7.27655 6.49373 6.46875 6.7024V7.46484C6.46875 7.72373 6.25889 7.93359 6 7.93359C5.74111 7.93359 5.53125 7.72373 5.53125 7.46484V6.29297C5.53125 6.03408 5.74111 5.82422 6 5.82422C6.51694 5.82422 6.9375 5.40366 6.9375 4.88672C6.9375 4.36978 6.51694 3.94922 6 3.94922C5.48306 3.94922 5.0625 4.36978 5.0625 4.88672C5.0625 5.14561 4.85264 5.35547 4.59375 5.35547C4.33486 5.35547 4.125 5.14561 4.125 4.88672Z" fill="#E52528"/>
</svg>
