<svg width="20" height="20" viewBox="0 0 20 20" fill="none" xmlns="http://www.w3.org/2000/svg">
<path d="M9.9948 0.833374C8.1818 0.833374 6.40952 1.37099 4.90207 2.37824C3.39462 3.38548 2.2197 4.81712 1.5259 6.49211C0.832097 8.1671 0.650566 10.0102 1.00426 11.7884C1.35796 13.5665 2.231 15.1999 3.51298 16.4819C4.79496 17.7638 6.42831 18.6369 8.20647 18.9906C9.98463 19.3443 11.8277 19.1627 13.5027 18.4689C15.1777 17.7751 16.6094 16.6002 17.6166 15.0928C18.6238 13.5853 19.1615 11.813 19.1615 10C19.1616 8.79623 18.9245 7.60419 18.4639 6.49199C18.0033 5.37979 17.3281 4.36923 16.4768 3.51801C15.6256 2.66678 14.615 1.99157 13.5028 1.53094C12.3906 1.07031 11.1986 0.833274 9.9948 0.833374ZM12.9093 14.7231C12.875 14.8087 12.8228 14.8859 12.7562 14.9496C12.6896 15.0134 12.6102 15.0621 12.5232 15.0926C12.4362 15.1232 12.3437 15.1347 12.2519 15.1266C12.1601 15.1184 12.0711 15.0907 11.9908 15.0453L9.5024 13.1117L7.90527 14.5852C7.86821 14.6126 7.82486 14.6302 7.77921 14.6364C7.73356 14.6427 7.68707 14.6373 7.64402 14.6209L7.95019 11.8815L7.95999 11.8893L7.96625 11.8352C7.96625 11.8352 12.4442 7.75829 12.6266 7.58459C12.8113 7.41134 12.7503 7.37375 12.7503 7.37375C12.7608 7.16243 12.4189 7.37375 12.4189 7.37375L6.4858 11.1908L4.01493 10.3493C4.01493 10.3493 3.63543 10.2132 3.59968 9.91387C3.5621 9.61687 4.0273 9.45554 4.0273 9.45554L13.8512 5.55282C13.8512 5.55282 14.6588 5.19301 14.6588 5.78887L12.9093 14.7231Z" fill="#458749"/>
</svg>
