<svg width="48" height="48" viewBox="0 0 48 48" fill="none" xmlns="http://www.w3.org/2000/svg">
<path d="M24 0C17.6362 0 11.5275 2.53013 7.03125 7.02938C2.53125 11.5286 0 17.6374 0 24C0 30.3626 2.53125 36.4714 7.03125 40.9706C11.5275 45.4699 17.6362 48 24 48C30.3638 48 36.4725 45.4699 40.9688 40.9706C45.4688 36.4714 48 30.3626 48 24C48 17.6374 45.4688 11.5286 40.9688 7.02938C36.4725 2.53013 30.3638 0 24 0Z" fill="url(#paint0_linear_138_385)"/>
<path d="M10.8044 23.6132C17.8521 20.544 22.5505 18.5205 24.8998 17.5429C31.6152 14.7512 33.0088 14.2664 33.919 14.2502C34.1192 14.2468 34.5649 14.2962 34.8557 14.5315C35.0974 14.7297 35.1655 14.9978 35.1995 15.1859C35.2297 15.3739 35.2713 15.8025 35.2373 16.137C34.8747 19.9584 33.2997 29.2316 32.499 33.5117C32.1629 35.3228 31.4943 35.9299 30.8484 35.9892C29.4434 36.1184 28.3783 35.0618 27.0186 34.171C24.8922 32.7765 23.6912 31.9088 21.6252 30.5483C19.2382 28.9759 20.7867 28.1116 22.1464 26.6994C22.5014 26.3297 28.688 20.7053 28.8051 20.1951C28.8202 20.1313 28.8354 19.8934 28.6918 19.7681C28.5521 19.6423 28.3442 19.6854 28.1932 19.7194C27.9779 19.7677 24.5824 22.0137 17.9955 26.4569C17.0324 27.1193 16.1599 27.4421 15.3743 27.4251C14.5132 27.4066 12.8514 26.9372 11.6164 26.5362C10.1056 26.0442 8.90071 25.784 9.00647 24.9484C9.05934 24.5134 9.65997 24.0682 10.8044 23.6132Z" fill="white"/>
<defs>
<linearGradient id="paint0_linear_138_385" x1="24" y1="0" x2="24" y2="48" gradientUnits="userSpaceOnUse">
<stop stop-color="#2AABEE"/>
<stop offset="1" stop-color="#229ED9"/>
</linearGradient>
</defs>
</svg>
