<svg width="24" height="18" viewBox="0 0 24 18" fill="none" xmlns="http://www.w3.org/2000/svg">
<path d="M18.7528 17.7316H14.8737H13.8292H13.6036V12.5285H15.3053C15.7368 12.5285 15.9918 12.0381 15.7368 11.685L12.4266 7.10468C12.2158 6.81045 11.7793 6.81045 11.5685 7.10468L8.25828 11.685C8.00327 12.0381 8.25337 12.5285 8.68982 12.5285H10.3915V17.7316H10.1659H9.12137H4.62444C2.04986 17.5894 0 15.1815 0 12.5726C0 10.7729 0.975889 9.20358 2.42256 8.3552C2.29015 7.99721 2.2215 7.6147 2.2215 7.21257C2.2215 5.37358 3.7074 3.88768 5.54638 3.88768C5.9436 3.88768 6.32611 3.95634 6.6841 4.08874C7.74826 1.83292 10.0433 0.268555 12.7111 0.268555C16.1635 0.273459 19.0078 2.9167 19.3314 6.28572C21.9845 6.74179 24 9.19868 24 11.9792C24 14.951 21.6853 17.5256 18.7528 17.7316Z" fill="#A7A9AC"/>
</svg>
