<svg width="14" height="14" viewBox="0 0 14 14" fill="none" xmlns="http://www.w3.org/2000/svg">
<path d="M7.12694 0C3.33141 0 0.254187 3.05316 0.254187 6.81975C0.254187 8.10819 0.614563 9.31319 1.24041 10.3412L0 14L3.80513 12.7912C4.78975 13.3313 5.92216 13.6395 7.12694 13.6395C10.923 13.6395 14 10.5859 14 6.81975C14 3.05316 10.923 0 7.12694 0ZM10.5445 9.40969C10.3828 9.81053 9.65156 10.1763 9.32891 10.1932C9.00659 10.2103 8.99741 10.443 7.24016 9.67962C5.48312 8.91606 4.42603 7.0595 4.34269 6.93994C4.25928 6.82081 3.66206 5.96972 3.69428 5.11322C3.72672 4.25656 4.19575 3.85241 4.36316 3.68431C4.53038 3.51597 4.72209 3.48581 4.83916 3.48391C4.97753 3.48166 5.06716 3.47978 5.16956 3.48356C5.27187 3.48744 5.42556 3.46216 5.55863 3.81603C5.69163 4.16988 6.00997 5.03956 6.05069 5.12819C6.09137 5.21691 6.11656 5.31962 6.05387 5.43353C5.991 5.54769 5.95881 5.619 5.86759 5.71737C5.77588 5.81575 5.67466 5.93744 5.59284 6.01266C5.50159 6.09594 5.40628 6.18678 5.50222 6.36481C5.59809 6.54272 5.92887 7.12594 6.43281 7.60656C7.08047 8.22441 7.639 8.42934 7.81087 8.52272C7.98322 8.61659 8.08606 8.60616 8.19294 8.49369C8.29931 8.38122 8.65041 8.00163 8.77406 7.83216C8.89766 7.66222 9.01347 7.6955 9.17225 7.75937C9.33094 7.8235 10.1772 8.27675 10.3495 8.37034C10.5217 8.46375 10.6368 8.51188 10.678 8.58597C10.7191 8.66034 10.7061 9.00881 10.5445 9.40969Z" fill="#458749"/>
</svg>
