<svg width="48" height="48" viewBox="0 0 48 48" fill="none" xmlns="http://www.w3.org/2000/svg">
<g clip-path="url(#clip0_138_310)">
<path fill-rule="evenodd" clip-rule="evenodd" d="M23.993 0C10.763 0 2.72941e-05 10.765 2.72941e-05 24C-0.00762234 29.0551 1.59287 33.9816 4.57003 38.067L1.58003 46.984L10.804 44.036C14.7179 46.6303 19.3114 48.0095 24.007 48C37.237 48 48 37.234 48 24C48 10.766 37.238 0 24.007 0H23.993ZM17.293 12.19C16.827 11.076 16.475 11.034 15.77 11.005C15.5024 10.988 15.2342 10.979 14.966 10.978C14.048 10.978 13.089 11.246 12.511 11.838C11.806 12.558 10.057 14.236 10.057 17.679C10.057 21.122 12.567 24.452 12.906 24.918C13.259 25.383 17.801 32.55 24.853 35.471C30.368 37.757 32.005 37.545 33.26 37.277C35.094 36.882 37.393 35.527 37.971 33.891C38.55 32.254 38.55 30.857 38.381 30.561C38.211 30.265 37.745 30.096 37.041 29.743C36.335 29.39 32.907 27.697 32.258 27.471C31.624 27.231 31.018 27.316 30.538 27.993C29.861 28.939 29.198 29.898 28.662 30.476C28.239 30.928 27.547 30.985 26.969 30.744C26.193 30.42 24.021 29.658 21.341 27.274C19.267 25.425 17.857 23.126 17.448 22.434C17.038 21.729 17.406 21.32 17.73 20.939C18.083 20.501 18.421 20.191 18.774 19.782C19.126 19.372 19.324 19.161 19.55 18.682C19.79 18.216 19.62 17.736 19.45 17.382C19.282 17.03 17.871 13.587 17.293 12.191V12.19Z" fill="#67C15E"/>
</g>
<defs>
<clipPath id="clip0_138_310">
<rect width="48" height="48" fill="white"/>
</clipPath>
</defs>
</svg>
